<?xml version="1.0" encoding="UTF-8"?>
<svg xmlns="http://www.w3.org/2000/svg" width="512" height="512" viewBox="0 0 512 512">
  <defs>
    <linearGradient id="gR" x1="0" y1="0" x2="1" y2="1">
      <stop offset="0" stop-color="#2c90ff"/>
      <stop offset="0.55" stop-color="#00d3a7"/>
      <stop offset="1" stop-color="#7b61ff"/>
    </linearGradient>
    <radialGradient id="gG" cx="50%" cy="50%" r="60%">
      <stop offset="0" stop-color="#00d3a7" stop-opacity="0.55"/>
      <stop offset="1" stop-color="#00d3a7" stop-opacity="0"/>
    </radialGradient>
  </defs>
  <g transform="translate(30,85) scale(0.58)">
    <circle cx="310" cy="80" r="120" fill="url(#gG)"/>
    <path d="M 40 360
             C 95 170, 185 120, 275 250
             C 325 325, 360 385, 430 385
             C 520 385, 560 290, 590 210
             C 620 130, 695 85, 770 115"
          fill="none"
          stroke="url(#gR)"
          stroke-width="68"
          stroke-linecap="round"
          stroke-linejoin="round"/>
    <circle cx="770" cy="115" r="58" fill="#0b2540" opacity="0.90" stroke="#00d3a7" stroke-width="8"/>
    <path d="M 770 76
             L 784 102
             L 812 115
             L 784 128
             L 770 154
             L 756 128
             L 728 115
             L 756 102 Z"
          fill="#eef6ff"/>
    <circle cx="770" cy="115" r="84" fill="none" stroke="#2c90ff" stroke-width="6" opacity="0.35"/>
  </g>
</svg>
